<svg xmlns="http://www.w3.org/2000/svg" fill="none" viewBox="0 13.932 36.43243243243243 40.176" style="max-height: 500px" width="36.43243243243243" height="40.176"><path fill="url(#paint0_linear_9735_163848)" d="M16.17 14.477a3.691 3.691 0 013.66 0l14.31 8.172A3.691 3.691 0 0136 25.855v16.274c0 1.325-.71 2.549-1.86 3.206l-14.31 8.172a3.691 3.691 0 01-3.66 0L1.86 45.335A3.691 3.691 0 010 42.129V25.855c0-1.325.71-2.549 1.86-3.206l14.31-8.172z"/><path style="mix-blend-mode:soft-light" fill="#fff" d="M24 29.991l1.697 2.303L28 33.991l-2.303 1.697L24 37.991l-1.697-2.303L20 33.991l2.303-1.697L24 29.991zm-12 0l1.697 2.303L16 33.991l-2.303 1.697L12 37.991l-1.697-2.303L8 33.991l2.303-1.697L12 29.991z"/><path fill="url(#paint1_linear_9735_163848)" d="M18.853 8.57a1 1 0 01-1.715 0l-4.234-7.056A1 1 0 0113.76 0h8.468a1 1 0 01.857 1.514l-4.233 7.057z"/><defs><linearGradient gradientUnits="userSpaceOnUse" y2="70.001" x2="43" y1="16.502" x1="9" id="paint0_linear_9735_163848"><stop stop-color="#BBCE00" offset=".239"/><stop stop-color="#7D8900" offset="1"/></linearGradient><linearGradient gradientUnits="userSpaceOnUse" y2="-5.928" x2="13.703" y1="9.372" x1="20.995" id="paint1_linear_9735_163848"><stop stop-color="#BBCE00" offset=".239"/><stop stop-color="#7D8900" offset="1"/></linearGradient></defs></svg>