<svg xmlns="http://www.w3.org/2000/svg" width="127.844" height="55.823" viewBox="0 0 127.844 55.823">
  <path id="Logo" d="M524.91,907.733c-3.394,0-6.11-3.35-6.11-7.469V886.32c0-4.121,2.716-7.469,6.11-7.469h39.069V859.383c0-4.12,2.716-7.469,6.112-7.469h39.565c3.4,0,6.112,3.306,6.112,7.424v13.943c0,4.12-2.716,7.471-6.112,7.471H570.587V884.6h-.177a7.211,7.211,0,0,1,.18,1.72v13.948c0,4.12-2.716,7.47-6.11,7.47Zm56.645-.688a.23.23,0,0,1-.168-.278h0a.257.257,0,0,1,.029-.069l.579-1.32-1.268-2.4a.22.22,0,0,1,0-.208.268.268,0,0,1,.138-.137.214.214,0,0,1,.206,0,.264.264,0,0,1,.138.137l1.028,2.056.9-2.056a.229.229,0,0,1,.279-.166h0a.334.334,0,0,1,.236.308h0a.226.226,0,0,1-.029.069l-1.758,3.928c.035.1-.069.174-.174.174a.261.261,0,0,1-.138-.035Zm59.725-1.445a1.462,1.462,0,0,1-.521-.311.249.249,0,0,1-.069-.206.3.3,0,0,1,.1-.206.29.29,0,0,1,.242-.069.251.251,0,0,1,.206.1,1.179,1.179,0,0,0,.31.208,1.093,1.093,0,0,0,.481.1,1.15,1.15,0,0,0,.521-.1.352.352,0,0,0,.174-.276.361.361,0,0,0-.174-.31,2.078,2.078,0,0,0-.62-.208,1.862,1.862,0,0,1-.827-.349.718.718,0,0,1-.276-.551.748.748,0,0,1,.174-.481.986.986,0,0,1,.449-.276,1.572,1.572,0,0,1,.551-.1,1.843,1.843,0,0,1,.655.1,1.112,1.112,0,0,1,.449.349.253.253,0,0,1,.069.206.189.189,0,0,1-.1.174.231.231,0,0,1-.208.035.3.3,0,0,1-.207-.1.706.706,0,0,0-.31-.174,1.564,1.564,0,0,0-.792.034.254.254,0,0,0-.161.322.249.249,0,0,0,.055.093.318.318,0,0,0,.208.137,2.878,2.878,0,0,0,.483.138,5.749,5.749,0,0,1,.689.207.77.77,0,0,1,.349.31.742.742,0,0,1,.1.414.784.784,0,0,1-.138.481,1.4,1.4,0,0,1-.413.349,2.651,2.651,0,0,1-.724.1,1.608,1.608,0,0,1-.727-.143Zm-3.1,0a1.5,1.5,0,0,1-.521-.311.255.255,0,0,1-.068-.206.3.3,0,0,1,.1-.206.289.289,0,0,1,.241-.069.246.246,0,0,1,.206.1,1.2,1.2,0,0,0,.31.208,1.1,1.1,0,0,0,.483.1,1.152,1.152,0,0,0,.521-.1.352.352,0,0,0,.173-.276.363.363,0,0,0-.173-.31,2.076,2.076,0,0,0-.621-.208,1.848,1.848,0,0,1-.827-.349.715.715,0,0,1-.276-.551.748.748,0,0,1,.174-.481.982.982,0,0,1,.449-.276,1.569,1.569,0,0,1,.551-.1,1.839,1.839,0,0,1,.654.1,1.122,1.122,0,0,1,.449.349.251.251,0,0,1,.069.206.188.188,0,0,1-.1.174.228.228,0,0,1-.206.035.3.3,0,0,1-.208-.1.7.7,0,0,0-.31-.174,1.567,1.567,0,0,0-.793.034.254.254,0,0,0-.16.322.248.248,0,0,0,.055.093.315.315,0,0,0,.208.137,2.862,2.862,0,0,0,.481.138,5.709,5.709,0,0,1,.689.207.773.773,0,0,1,.349.31.737.737,0,0,1,.1.414.792.792,0,0,1-.138.481,1.406,1.406,0,0,1-.414.349,2.456,2.456,0,0,1-.723.1,1.6,1.6,0,0,1-.725-.14Zm-3.308-.069a1.516,1.516,0,0,1-.586-.551,1.756,1.756,0,0,1,0-1.654,1.413,1.413,0,0,1,.551-.551,1.507,1.507,0,0,1,.793-.206,1.3,1.3,0,0,1,.758.206,1.251,1.251,0,0,1,.483.551,1.911,1.911,0,0,1,.174.792.236.236,0,0,1-.243.242h-2.157a.919.919,0,0,0,.123.349,1.327,1.327,0,0,0,.38.379.993.993,0,0,0,.585.137,1.218,1.218,0,0,0,.349-.069,2.739,2.739,0,0,0,.31-.138c.069-.035.1-.069.173-.069a.267.267,0,0,1,.174.069c.069.069.1.1.1.174a.19.19,0,0,1-.1.174,1.619,1.619,0,0,1-.483.241,1.851,1.851,0,0,1-.551.137,1.632,1.632,0,0,1-.831-.214Zm1.65-1.623a1.313,1.313,0,0,0-.095-.349.744.744,0,0,0-.31-.349.787.787,0,0,0-.481-.137.939.939,0,0,0-.551.137,1.208,1.208,0,0,0-.349.379,1.431,1.431,0,0,0-.086.31Zm-3.748,1.758a.255.255,0,0,1-.069-.208v-1.413a1.141,1.141,0,0,0-.1-.517.669.669,0,0,0-.31-.31,1.019,1.019,0,0,0-.9,0,.606.606,0,0,0-.31.275.789.789,0,0,0-.1.38h-.068v1.55a.509.509,0,0,1-.069.208.3.3,0,0,1-.208.1.482.482,0,0,1-.208-.069.254.254,0,0,1-.069-.207v-2.585a.294.294,0,0,1,.069-.206.252.252,0,0,1,.208-.069.3.3,0,0,1,.208.069.253.253,0,0,1,.069.206v.186a1.115,1.115,0,0,1,.379-.289,1.455,1.455,0,0,1,1.38,0,1.091,1.091,0,0,1,.481.483,1.8,1.8,0,0,1,.174.792v1.413a.5.5,0,0,1-.069.208,1.562,1.562,0,0,1-.277.069.475.475,0,0,1-.211-.069Zm-4.032,0a.256.256,0,0,1-.069-.208v-2.585a.289.289,0,0,1,.069-.206.248.248,0,0,1,.206-.069.293.293,0,0,1,.208.069.253.253,0,0,1,.069.206v2.551a.5.5,0,0,1-.069.207.209.209,0,0,1-.208.1.5.5,0,0,1-.21-.069Zm-2.826-.069a1.482,1.482,0,0,1-.516-.31.254.254,0,0,1-.069-.206.3.3,0,0,1,.1-.207.292.292,0,0,1,.24-.069.245.245,0,0,1,.208.1,1.224,1.224,0,0,0,.31.208,1.108,1.108,0,0,0,.483.1,1.16,1.16,0,0,0,.517-.1.348.348,0,0,0,.174-.276.365.365,0,0,0-.174-.31,2.054,2.054,0,0,0-.621-.207,1.856,1.856,0,0,1-.826-.349.718.718,0,0,1-.276-.551.749.749,0,0,1,.173-.482.982.982,0,0,1,.449-.276,1.542,1.542,0,0,1,.551-.1,1.84,1.84,0,0,1,.655.1,1.116,1.116,0,0,1,.449.349.252.252,0,0,1,.069.206.191.191,0,0,1-.1.174.23.23,0,0,1-.206.035.3.3,0,0,1-.206-.1.715.715,0,0,0-.31-.174,1.585,1.585,0,0,0-.794.034.255.255,0,0,0-.1.415.32.32,0,0,0,.208.137,2.952,2.952,0,0,0,.481.138,5.685,5.685,0,0,1,.689.206.78.78,0,0,1,.349.31.75.75,0,0,1,.1.415.79.79,0,0,1-.138.481,1.377,1.377,0,0,1-.413.349,2.3,2.3,0,0,1-.723.1,1.6,1.6,0,0,1-.731-.141Zm-1.929.069a.252.252,0,0,1-.069-.208v-.145a1.183,1.183,0,0,1-.349.249.879.879,0,0,1-.621.174,1.453,1.453,0,0,1-.689-.174,1.086,1.086,0,0,1-.483-.481,1.811,1.811,0,0,1-.174-.792v-1.412a.491.491,0,0,1,.069-.206.251.251,0,0,1,.208-.069.492.492,0,0,1,.206.069.248.248,0,0,1,.069.206v1.413a1.162,1.162,0,0,0,.1.521.681.681,0,0,0,.31.31,1.027,1.027,0,0,0,.9,0,.6.6,0,0,0,.309-.276.685.685,0,0,0,.1-.379h.035v-1.585a.3.3,0,0,1,.069-.207.253.253,0,0,1,.208-.069.288.288,0,0,1,.207.069.252.252,0,0,1,.069.207v2.55a.509.509,0,0,1-.069.208.208.208,0,0,1-.207.1.48.48,0,0,1-.208-.072Zm-5.584-.138a1.693,1.693,0,0,1-.551-.551,1.593,1.593,0,0,1-.207-.792V901.6a.3.3,0,0,1,.069-.208.254.254,0,0,1,.207-.069.294.294,0,0,1,.208.069.364.364,0,0,1,.069.208v1.55a1.7,1.7,0,0,1,.483-.379,1.183,1.183,0,0,1,.621-.138,1.476,1.476,0,0,1,.758.207,1.589,1.589,0,0,1,.728,1.346,1.5,1.5,0,0,1-.207.792,1.4,1.4,0,0,1-.551.552,1.638,1.638,0,0,1-.827.207,1.5,1.5,0,0,1-.8-.206Zm.277-2.308a1.309,1.309,0,0,0-.379.379,1.081,1.081,0,0,0,.379,1.481h0a.977.977,0,0,0,.521.137.834.834,0,0,0,.517-.137.908.908,0,0,0,.349-.38,1.169,1.169,0,0,0,0-1.1,1.223,1.223,0,0,0-.349-.379.831.831,0,0,0-.517-.137.9.9,0,0,0-.525.137Zm-5.41,2.448a.3.3,0,0,1-.069-.208v-2.583a.293.293,0,0,1,.483-.206.285.285,0,0,1,.069.206v.137a1.478,1.478,0,0,1,.349-.275,1.4,1.4,0,0,1,.62-.174.969.969,0,0,1,.521.1.309.309,0,0,1,.138.276.176.176,0,0,1-.069.137c-.035.035-.069.035-.1.069h-.137a1.42,1.42,0,0,0-.655,0,.645.645,0,0,0-.449.242.733.733,0,0,0-.174.449h-.035v1.585a.287.287,0,0,1-.069.208.3.3,0,0,1-.422.035Zm-2.965-.138a1.5,1.5,0,0,1-.585-.552,1.756,1.756,0,0,1,0-1.653,1.413,1.413,0,0,1,.551-.551,1.51,1.51,0,0,1,.792-.207,1.307,1.307,0,0,1,.759.207,1.238,1.238,0,0,1,.481.551,1.89,1.89,0,0,1,.174.792.234.234,0,0,1-.227.242h-2.172a.92.92,0,0,0,.123.349,1.327,1.327,0,0,0,.38.379.984.984,0,0,0,.586.137,1.254,1.254,0,0,0,.349-.069,2.569,2.569,0,0,0,.31-.137c.069-.035.1-.069.174-.069a.266.266,0,0,1,.174.069c.069.069.1.1.1.174a.189.189,0,0,1-.1.173,1.575,1.575,0,0,1-.483.241,1.841,1.841,0,0,1-.551.137,1.634,1.634,0,0,1-.836-.215Zm1.646-1.62a1.3,1.3,0,0,0-.094-.349.759.759,0,0,0-.31-.348.8.8,0,0,0-.483-.137.944.944,0,0,0-.551.137,1.2,1.2,0,0,0-.349.379,1.377,1.377,0,0,0-.086.31Zm-3.437,1.823a.934.934,0,0,1-.868-.517,1.3,1.3,0,0,1-.138-.549v-1.446h-.276a.482.482,0,0,1-.206-.069.249.249,0,0,1,0-.348.294.294,0,0,1,.206-.069h.276v-.793a.482.482,0,0,1,.069-.206c.035-.069.137-.069.206-.069a.479.479,0,0,1,.208.069c.069.035.069.137.069.206v.793h.483a.477.477,0,0,1,.206.069.249.249,0,0,1,0,.348.29.29,0,0,1-.206.069h-.483v1.446a.518.518,0,0,0,.138.379.334.334,0,0,0,.31.138h.206a.258.258,0,0,1,.174.069.484.484,0,0,1,.069.207.3.3,0,0,1-.1.208.291.291,0,0,1-.242.069Zm-2.308,0a.935.935,0,0,1-.868-.517,1.3,1.3,0,0,1-.138-.551v-1.446h-.24a.484.484,0,0,1-.208-.069.254.254,0,0,1,0-.348.292.292,0,0,1,.208-.069h.24v-.792a.494.494,0,0,1,.069-.206c.035-.069.137-.069.206-.069a.469.469,0,0,1,.208.069c.069.035.069.137.069.206v.792h.521a.486.486,0,0,1,.206.069.254.254,0,0,1,0,.348.29.29,0,0,1-.206.069h-.521v1.446a.524.524,0,0,0,.138.379.337.337,0,0,0,.31.138h.207a.257.257,0,0,1,.174.069.476.476,0,0,1,.069.207.3.3,0,0,1-.1.208.291.291,0,0,1-.242.069Zm-4.033-.207a1.507,1.507,0,0,1-.586-.552,1.76,1.76,0,0,1,0-1.653,1.422,1.422,0,0,1,.551-.551,1.517,1.517,0,0,1,.793-.206,1.307,1.307,0,0,1,.758.206,1.241,1.241,0,0,1,.483.551,1.935,1.935,0,0,1,.173.793.259.259,0,0,1-.069.174.266.266,0,0,1-.174.069h-2.157a.924.924,0,0,0,.123.349,1.34,1.34,0,0,0,.379.379.984.984,0,0,0,.586.137,1.2,1.2,0,0,0,.349-.069,2.573,2.573,0,0,0,.31-.137c.069-.035.1-.069.174-.069a.259.259,0,0,1,.174.069c.069.069.1.1.1.174a.189.189,0,0,1-.1.174,1.57,1.57,0,0,1-.481.241,1.854,1.854,0,0,1-.551.137,1.626,1.626,0,0,1-.836-.211Zm1.646-1.617a1.294,1.294,0,0,0-.095-.349.751.751,0,0,0-.31-.349.792.792,0,0,0-.481-.137.939.939,0,0,0-.551.137,1.208,1.208,0,0,0-.349.379,1.427,1.427,0,0,0-.086.31Zm-5.5,1.62a1.681,1.681,0,0,1-.551-.551,1.6,1.6,0,0,1-.206-.792V901.6a.292.292,0,0,1,.069-.208.253.253,0,0,1,.206-.069.293.293,0,0,1,.206.069.369.369,0,0,1,.069.208v1.55a1.674,1.674,0,0,1,.483-.379,1.183,1.183,0,0,1,.621-.138,1.479,1.479,0,0,1,.758.207,1.6,1.6,0,0,1,.724,1.346,1.5,1.5,0,0,1-.208.792,1.4,1.4,0,0,1-.548.552,1.64,1.64,0,0,1-.827.207,1.5,1.5,0,0,1-.8-.2Zm.276-2.308a1.334,1.334,0,0,0-.379.379,1.169,1.169,0,0,0,0,1.1,1,1,0,0,0,.379.38,1.059,1.059,0,0,0,1.042,0,.925.925,0,0,0,.349-.38,1.176,1.176,0,0,0,0-1.1,1.238,1.238,0,0,0-.349-.379.836.836,0,0,0-.521-.137.894.894,0,0,0-.529.14Zm-6.1,2.308a1.687,1.687,0,0,1-.551-.551,1.592,1.592,0,0,1-.207-.792,1.511,1.511,0,0,1,.207-.793,1.6,1.6,0,0,1,.521-.551,1.393,1.393,0,0,1,.758-.206,1.178,1.178,0,0,1,.621.138,1.32,1.32,0,0,1,.483.379V901.6a.292.292,0,0,1,.069-.207.251.251,0,0,1,.206-.069.294.294,0,0,1,.208.069.368.368,0,0,1,.069.207v2.585a1.528,1.528,0,0,1-.759,1.346,1.718,1.718,0,0,1-.827.206,1.5,1.5,0,0,1-.8-.2Zm.276-2.308a1.326,1.326,0,0,0-.379.379,1.081,1.081,0,0,0,.379,1.481h0a1.047,1.047,0,0,0,1.037,0,.916.916,0,0,0,.349-.38,1.169,1.169,0,0,0,0-1.1,1.223,1.223,0,0,0-.349-.379.833.833,0,0,0-.521-.137.9.9,0,0,0-.525.14Zm-2.378,2.448a.256.256,0,0,1-.069-.208v-1.413a1.15,1.15,0,0,0-.1-.517.668.668,0,0,0-.31-.31,1.019,1.019,0,0,0-.9,0,.614.614,0,0,0-.31.276.786.786,0,0,0-.1.379h-.069v1.551a.494.494,0,0,1-.069.207.209.209,0,0,1-.208.1.493.493,0,0,1-.206-.069.256.256,0,0,1-.069-.208v-2.585a.3.3,0,0,1,.069-.206.249.249,0,0,1,.206-.069.292.292,0,0,1,.208.069.252.252,0,0,1,.069.206v.186a1.134,1.134,0,0,1,.379-.289,1.457,1.457,0,0,1,1.378,0,1.093,1.093,0,0,1,.483.483,1.8,1.8,0,0,1,.173.793v1.413a.491.491,0,0,1-.069.208.809.809,0,0,1-.276.069.49.49,0,0,1-.215-.067Zm-5.687-.138a1.417,1.417,0,0,1-.551-.552,1.749,1.749,0,0,1,0-1.653,1.413,1.413,0,0,1,.551-.551,1.636,1.636,0,0,1,.827-.207,1.431,1.431,0,0,1,.792.207,1.674,1.674,0,0,1,.551.551,1.756,1.756,0,0,1,0,1.653,1.525,1.525,0,0,1-1.346.758,1.642,1.642,0,0,1-.836-.2Zm.31-2.31a.926.926,0,0,0-.349.38,1.176,1.176,0,0,0,0,1.1,1.238,1.238,0,0,0,.349.379.892.892,0,0,0,.517.137.833.833,0,0,0,.521-.137.92.92,0,0,0,.349-.379,1.428,1.428,0,0,0,.138-.551,1.007,1.007,0,0,0-.138-.551.92.92,0,0,0-.349-.379,1.059,1.059,0,0,0-1.047,0Zm-6.755,2.31a1.513,1.513,0,0,1-.586-.552,1.752,1.752,0,0,1,0-1.653,1.413,1.413,0,0,1,.551-.551,1.513,1.513,0,0,1,.793-.207,1.306,1.306,0,0,1,.758.207,1.24,1.24,0,0,1,.482.551,1.9,1.9,0,0,1,.174.792.235.235,0,0,1-.227.242h-2.171a.921.921,0,0,0,.124.349,1.331,1.331,0,0,0,.378.379.984.984,0,0,0,.586.137,1.2,1.2,0,0,0,.349-.069,2.573,2.573,0,0,0,.31-.137c.069-.035.1-.069.174-.069a.262.262,0,0,1,.173.069c.069.069.1.1.1.174a.189.189,0,0,1-.1.173,1.574,1.574,0,0,1-.483.241,1.847,1.847,0,0,1-.548.137,1.645,1.645,0,0,1-.841-.212Zm1.645-1.62a1.268,1.268,0,0,0-.094-.349.76.76,0,0,0-.31-.348.79.79,0,0,0-.483-.137.934.934,0,0,0-.548.137,1.2,1.2,0,0,0-.349.379,1.416,1.416,0,0,0-.086.31Zm-6.056,1.823a.49.49,0,0,1-.208-.069.256.256,0,0,1-.069-.207v-3.86a.3.3,0,0,1,.069-.208.253.253,0,0,1,.208-.069h1.379a1.533,1.533,0,0,1,.69.138,1.046,1.046,0,0,1,.449.413,1.2,1.2,0,0,1,.174.621.974.974,0,0,1-.137.52.805.805,0,0,1-.414.348,1.367,1.367,0,0,1,.621.349,1.111,1.111,0,0,1,.242.689,1.475,1.475,0,0,1-.174.69,1.443,1.443,0,0,1-1.28.656Zm.31-.551h1.172a.87.87,0,0,0,.449-.1.609.609,0,0,0,.31-.276.856.856,0,0,0,.1-.449.733.733,0,0,0-.1-.413.759.759,0,0,0-.31-.241.938.938,0,0,0-.449-.069h-1.172Zm0-2.1h1.068a.838.838,0,0,0,.517-.174.663.663,0,0,0,.025-.938l-.025-.026a.846.846,0,0,0-.517-.174h-1.068Zm54.52-1.1a.149.149,0,1,1-.007,0Zm.2-1.6a.811.811,0,0,1-.235-.605v-7.392a4.606,4.606,0,0,1,.605-2.319,4.519,4.519,0,0,1,6.148-1.612A4.618,4.618,0,0,1,637,890.062a4.421,4.421,0,0,1,.605,2.319,4.674,4.674,0,0,1-.537,2.284,4.551,4.551,0,0,1-1.479,1.613,3.877,3.877,0,0,1-2.116.605,3.823,3.823,0,0,1-1.749-.4,4.366,4.366,0,0,1-1.378-1.075v4.368a.811.811,0,0,1-.236.605.939.939,0,0,1-.638.235.812.812,0,0,1-.616-.231Zm2.754-10.617a3.2,3.2,0,0,0-1.041,1.076,3.427,3.427,0,0,0-.37,1.579,3.391,3.391,0,0,0,.37,1.546,2.676,2.676,0,0,0,1.041,1.075,2.916,2.916,0,0,0,2.957,0,3.207,3.207,0,0,0,1.041-1.075,3,3,0,0,0,.371-1.546,3.515,3.515,0,0,0-.37-1.579,2.88,2.88,0,0,0-4.006-1.071ZM603.1,896.648a4.639,4.639,0,0,1-1.648-.909,3.481,3.481,0,0,1-1.008-1.345.711.711,0,0,1,0-.638.786.786,0,0,1,.571-.37.836.836,0,0,1,.571.1.983.983,0,0,1,.437.47,2.14,2.14,0,0,0,.638.739,3.59,3.59,0,0,0,1.075.54,4.473,4.473,0,0,0,1.344.2,4.08,4.08,0,0,0,1.445-.235,2.735,2.735,0,0,0,1.075-.7,1.7,1.7,0,0,0,.4-1.143,2.232,2.232,0,0,0-.671-1.546,3.4,3.4,0,0,0-2.218-.84,5.725,5.725,0,0,1-3.159-1.176,3.1,3.1,0,0,1-1.143-2.454,2.812,2.812,0,0,1,.605-1.814,3.727,3.727,0,0,1,1.646-1.143,6.157,6.157,0,0,1,2.284-.4,5.114,5.114,0,0,1,1.714.269,3.538,3.538,0,0,1,1.276.773,5.168,5.168,0,0,1,.94,1.143,1.1,1.1,0,0,1,.2.672.789.789,0,0,1-.3.507.678.678,0,0,1-.671.068.856.856,0,0,1-.538-.437,2.965,2.965,0,0,0-.638-.806,2.506,2.506,0,0,0-.875-.508,3.206,3.206,0,0,0-1.176-.2,4.072,4.072,0,0,0-2.016.437,1.506,1.506,0,0,0-.806,1.409,1.862,1.862,0,0,0,.235.94,2.037,2.037,0,0,0,.941.773,6.813,6.813,0,0,0,1.944.47,5.38,5.38,0,0,1,3.023,1.177,3.345,3.345,0,0,1,1.076,2.586,3.57,3.57,0,0,1-.37,1.613,3.689,3.689,0,0,1-1.008,1.143,5.245,5.245,0,0,1-1.445.7,5.737,5.737,0,0,1-1.777.269,5.58,5.58,0,0,1-1.993-.329Zm38.067-.1a4.614,4.614,0,0,1-1.511-.875.676.676,0,0,1-.2-.605.793.793,0,0,1,.3-.538,1,1,0,0,1,.639-.235,1.023,1.023,0,0,1,.535.269,2.31,2.31,0,0,0,.875.571,3.553,3.553,0,0,0,1.344.269,2.811,2.811,0,0,0,1.444-.3.913.913,0,0,0,.508-.806.964.964,0,0,0-.471-.84,4.168,4.168,0,0,0-1.749-.571,4.97,4.97,0,0,1-2.386-.972,2.021,2.021,0,0,1-.739-1.58,2.134,2.134,0,0,1,.47-1.377,2.847,2.847,0,0,1,1.243-.806,5.029,5.029,0,0,1,1.58-.269,4.707,4.707,0,0,1,1.881.341,3.456,3.456,0,0,1,1.312.94.618.618,0,0,1,.2.538.582.582,0,0,1-.269.471.635.635,0,0,1-.605.1,1.044,1.044,0,0,1-.606-.3,2.212,2.212,0,0,0-.875-.538,3.484,3.484,0,0,0-1.075-.134,2.67,2.67,0,0,0-1.209.235.774.774,0,0,0-.5.7,1.01,1.01,0,0,0,.17.538,1.279,1.279,0,0,0,.606.437,7.939,7.939,0,0,0,1.343.37,8,8,0,0,1,1.915.605,2.381,2.381,0,0,1,1.008.874,2.145,2.145,0,0,1,.3,1.143,2.334,2.334,0,0,1-.4,1.344,2.57,2.57,0,0,1-1.175.941,2.983,2.983,0,0,1-1.777.4,6.221,6.221,0,0,1-2.131-.333Zm-20.83-.236a4.134,4.134,0,0,1-1.647-1.579,4.42,4.42,0,0,1-.605-2.319,4.876,4.876,0,0,1,.571-2.352,3.883,3.883,0,0,1,1.546-1.579,4.614,4.614,0,0,1,2.284-.571,4.146,4.146,0,0,1,2.183.571,3.423,3.423,0,0,1,1.378,1.545,5.291,5.291,0,0,1,.471,2.251.68.68,0,0,1-.2.508.71.71,0,0,1-.538.2h-6.209a2.967,2.967,0,0,0,.364,1.041,2.921,2.921,0,0,0,1.109,1.109,3.234,3.234,0,0,0,1.646.4,3.03,3.03,0,0,0,1.041-.2,2.786,2.786,0,0,0,.84-.437,1.066,1.066,0,0,1,.538-.2.828.828,0,0,1,.508.169.971.971,0,0,1,.3.538.558.558,0,0,1-.269.508,5.208,5.208,0,0,1-2.923.972,5.012,5.012,0,0,1-2.395-.57Zm4.669-4.636a3.586,3.586,0,0,0-.3-.972,2.332,2.332,0,0,0-.875-1.009,2.543,2.543,0,0,0-1.377-.37,2.991,2.991,0,0,0-1.579.4,2.69,2.69,0,0,0-1.008,1.109,3.092,3.092,0,0,0-.273.841Zm-43.073,4.872a4.616,4.616,0,0,1-1.511-.875.682.682,0,0,1-.2-.605.794.794,0,0,1,.3-.538,1,1,0,0,1,.638-.235,1.012,1.012,0,0,1,.538.269,2.31,2.31,0,0,0,.875.571,3.565,3.565,0,0,0,1.345.269,2.811,2.811,0,0,0,1.444-.3.913.913,0,0,0,.508-.806.966.966,0,0,0-.47-.84,4.173,4.173,0,0,0-1.75-.571,4.957,4.957,0,0,1-2.386-.972,2.021,2.021,0,0,1-.739-1.58,2.138,2.138,0,0,1,.47-1.377,2.845,2.845,0,0,1,1.244-.806,5.015,5.015,0,0,1,1.579-.269,4.707,4.707,0,0,1,1.881.341,3.456,3.456,0,0,1,1.312.94.612.612,0,0,1,.2.538.577.577,0,0,1-.269.471.639.639,0,0,1-.605.1,1.042,1.042,0,0,1-.605-.3,2.213,2.213,0,0,0-.875-.538,3.49,3.49,0,0,0-1.075-.134,2.687,2.687,0,0,0-1.21.235.777.777,0,0,0-.508.7,1.017,1.017,0,0,0,.169.538,1.281,1.281,0,0,0,.605.437,7.954,7.954,0,0,0,1.344.37,8,8,0,0,1,1.915.605,2.375,2.375,0,0,1,1.008.874,2.139,2.139,0,0,1,.3,1.143,2.338,2.338,0,0,1-.4,1.344,2.573,2.573,0,0,1-1.176.941,2.913,2.913,0,0,1-1.777.4,6.2,6.2,0,0,1-2.128-.333Zm31.918-.135a2.586,2.586,0,0,1-1.008-1.143,3.58,3.58,0,0,1-.37-1.612v-4H611.7a.712.712,0,0,1-.538-.2.663.663,0,0,1-.2-.469.633.633,0,0,1,.2-.508.765.765,0,0,1,.538-.2h.773v-2.352a.694.694,0,0,1,.236-.571.735.735,0,0,1,.571-.235.7.7,0,0,1,.572.235.74.74,0,0,1,.235.571v2.352h1.378a.718.718,0,0,1,.538.2.688.688,0,0,1,.2.508.568.568,0,0,1-.2.469.959.959,0,0,1-.538.2h-1.376v4a1.608,1.608,0,0,0,.37,1.075,1.066,1.066,0,0,0,.875.437h.538a.6.6,0,0,1,.507.235.848.848,0,0,1,.2.571.718.718,0,0,1-.269.571.949.949,0,0,1-.705.235h-.3v.034a2.6,2.6,0,0,1-1.458-.4Zm-22.41,0a2.574,2.574,0,0,1-1.008-1.143,3.555,3.555,0,0,1-.37-1.612v-4h-.807a.712.712,0,0,1-.537-.2.666.666,0,0,1-.2-.469.633.633,0,0,1,.2-.508.767.767,0,0,1,.537-.2h.807v-2.352a.7.7,0,0,1,.235-.571.736.736,0,0,1,.563-.227.694.694,0,0,1,.571.236.735.735,0,0,1,.234.571v2.352h1.345a.71.71,0,0,1,.537.2.685.685,0,0,1,.2.508.565.565,0,0,1-.2.469.944.944,0,0,1-.537.2h-1.345v4a1.611,1.611,0,0,0,.371,1.076,1.064,1.064,0,0,0,.875.437h.538a.6.6,0,0,1,.5.236.849.849,0,0,1,.2.571.72.72,0,0,1-.269.571.949.949,0,0,1-.705.235h-.3v.034a2.593,2.593,0,0,1-1.443-.408Zm-15.119.169a.782.782,0,0,1-.235-.571V886.1l-1.176.5a1.455,1.455,0,0,1-.508.1.812.812,0,0,1-.605-.235.738.738,0,0,1-.235-.571.766.766,0,0,1,.136-.47.917.917,0,0,1,.4-.3l2.521-.907a.3.3,0,0,1,.168-.034h.136a.812.812,0,0,1,.6.235.961.961,0,0,1,.235.605v10.986a.691.691,0,0,1-.235.571.836.836,0,0,1-.638.235.787.787,0,0,1-.576-.235Z" transform="translate(-518.8 -851.914)" fill="#fff"/>
</svg>
